<svg width="33" height="33" viewBox="0 0 33 33" fill="none" xmlns="http://www.w3.org/2000/svg">
<path d="M5.95454 0.5H10.0455C13.0579 0.5 15.5 2.94209 15.5 5.95454V10.0455C15.5 13.0579 13.0579 15.5 10.0455 15.5H5.95454C2.94209 15.5001 0.5 13.058 0.5 10.0455V5.95454C0.5 2.94209 2.94209 0.5 5.95454 0.5Z" fill="currentColor"/>
<path d="M22.9545 0.5H27.0455C30.0579 0.5 32.5 2.94209 32.5 5.95454V10.0455C32.5 13.0579 30.0579 15.5 27.0455 15.5H22.9545C19.9421 15.5 17.5 13.0579 17.5 10.0455V5.95454C17.4999 2.94209 19.942 0.5 22.9545 0.5Z" fill="currentColor"/>
<path d="M5.95454 17.5H10.0455C13.0579 17.5 15.5 19.9421 15.5 22.9545V27.0455C15.5 30.0579 13.0579 32.5 10.0455 32.5H5.95454C2.94209 32.5001 0.5 30.058 0.5 27.0455V22.9546C0.5 19.9421 2.94209 17.5 5.95454 17.5Z" fill="currentColor"/>
<path d="M22.9545 17.5H27.0455C30.0579 17.5 32.5 19.9421 32.5 22.9545V27.0454C32.5 30.0579 30.0579 32.5 27.0455 32.5H22.9545C19.9421 32.5 17.5 30.0579 17.5 27.0455V22.9546C17.4999 19.9421 19.942 17.5 22.9545 17.5Z" fill="currentColor"/>
</svg>
