<svg width="193" height="167" viewBox="0 0 193 167" fill="none" xmlns="http://www.w3.org/2000/svg"><path fill-rule="evenodd" clip-rule="evenodd" d="M3.28069 3.28069H189.719V137.915H143.107V141.196H189.719H192.999V137.915V3.28069V0H189.719H3.28069H0V3.28069V91.5159H3.28069V3.28069Z" fill="white"></path><path d="M175.031 17.7864L154.027 97.6504H143.525L175.031 17.7864Z" fill="white"></path><path d="M166.279 134.618L154.027 104.626H143.525L166.279 134.618Z" fill="white"></path><rect y="97.9995" width="7.69871" height="43.197" fill="#FB6542"></rect><path fill-rule="evenodd" clip-rule="evenodd" d="M64.3913 105.256V97.9987H50.3929H42.6942L28.6973 97.9987L28.6973 105.256L42.6942 105.256V141.196H50.3929V105.256L64.3913 105.256Z" fill="#FB6542"></path><path d="M104.467 141.196C98.0394 141.196 92.6693 139.128 88.3563 134.991C84.0432 130.814 81.8867 125.683 81.8867 119.597C81.8867 113.551 84.0432 108.44 88.3563 104.264C92.6693 100.087 98.1452 97.999 104.784 97.999C108.632 97.999 111.888 98.5558 114.552 99.6696C117.258 100.783 119.795 102.394 122.163 104.502L117.152 109.932C113.177 106.471 109.033 104.741 104.72 104.741C100.492 104.741 96.9823 106.173 94.1915 109.037C91.443 111.901 90.0688 115.421 90.0688 119.597C90.0688 123.734 91.4642 127.254 94.255 130.158C97.0458 133.022 100.534 134.454 104.72 134.454C107.257 134.454 109.499 134.016 111.444 133.141C113.389 132.226 115.397 130.854 117.469 129.024L122.48 133.798C119.985 136.264 117.342 138.113 114.552 139.346C111.761 140.579 108.399 141.196 104.467 141.196Z" fill="#FB6542"></path><rect x="14.6953" y="134.284" width="6.99883" height="6.91152" fill="#FB6542"></rect><rect x="57.3906" y="134.284" width="6.99883" height="6.91152" fill="#FB6542"></rect><rect x="129.479" y="134.284" width="6.99883" height="6.91152" fill="#FB6542"></rect><path d="M5.84659 163.513C4.19925 163.513 2.8093 162.935 1.67676 161.778C0.558919 160.607 0 159.209 0 157.584C0 155.959 0.558919 154.569 1.67676 153.412C2.8093 152.241 4.19925 151.655 5.84659 151.655C7.6116 151.655 9.13392 152.329 10.4135 153.676L9.33248 154.817C8.27348 153.705 7.10416 153.149 5.82453 153.149C4.67727 153.149 3.70652 153.58 2.91226 154.444C2.13272 155.293 1.74295 156.34 1.74295 157.584C1.74295 158.814 2.14007 159.86 2.93433 160.724C3.74329 161.573 4.74346 161.998 5.93484 161.998C7.15564 161.998 8.30289 161.427 9.37661 160.285L10.5018 161.317C9.17804 162.781 7.62631 163.513 5.84659 163.513Z" fill="white"></path><path d="M13.3027 163.512V151.862H14.9874V154.904C15.425 153.898 16.0449 153.094 16.8471 152.493C17.6493 151.892 18.5682 151.614 19.6038 151.66V153.53H19.4725C18.1744 153.53 17.1023 153.996 16.2564 154.927C15.4104 155.858 14.9874 157.173 14.9874 158.87V163.512H13.3027Z" fill="white"></path><path d="M32.2846 161.778C31.1701 162.934 29.7913 163.512 28.1481 163.512C26.505 163.512 25.1333 162.934 24.0331 161.778C22.9472 160.621 22.4043 159.223 22.4043 157.584C22.4043 155.959 22.9544 154.568 24.0546 153.412C25.1691 152.24 26.5479 151.655 28.191 151.655C29.8341 151.655 31.2058 152.233 32.306 153.39C33.4062 154.546 33.9563 155.944 33.9563 157.584C33.9563 159.209 33.399 160.607 32.2846 161.778ZM28.191 161.997C29.3769 161.997 30.3485 161.573 31.1058 160.724C31.8773 159.875 32.2631 158.828 32.2631 157.584C32.2631 156.354 31.8631 155.307 31.0629 154.444C30.2771 153.58 29.3055 153.148 28.1481 153.148C26.9622 153.148 25.9906 153.58 25.2334 154.444C24.4761 155.293 24.0974 156.339 24.0974 157.584C24.0974 158.813 24.4904 159.86 25.2762 160.724C26.0621 161.573 27.0337 161.997 28.191 161.997Z" fill="white"></path><path d="M36.7559 163.512V151.902H38.4256V153.923C39.3075 152.411 40.5869 151.655 42.2639 151.655C43.5939 151.655 44.642 152.082 45.4082 152.935C46.1744 153.773 46.5575 154.896 46.5575 156.304V163.512H44.8878V156.73C44.8878 155.637 44.6131 154.784 44.0637 154.17C43.5288 153.541 42.7699 153.227 41.7868 153.227C40.8182 153.227 40.0159 153.564 39.3798 154.237C38.7437 154.911 38.4256 155.787 38.4256 156.865V163.512H36.7559Z" fill="white"></path><path d="M61.9174 163.513C60.7829 163.513 59.8063 163.196 58.9877 162.562C58.1691 161.927 57.7598 161.043 57.7598 159.907C57.7598 158.712 58.1906 157.791 59.0523 157.142C59.914 156.493 61.0701 156.168 62.5206 156.168C63.6695 156.168 64.8041 156.331 65.9242 156.655V156.301C65.9242 155.298 65.637 154.531 65.0626 154C64.4881 153.469 63.6767 153.204 62.6283 153.204C61.5368 153.204 60.4095 153.477 59.2462 154.022L58.7507 152.629C60.1294 151.98 61.4794 151.655 62.8006 151.655C64.3804 151.655 65.5796 152.076 66.3982 152.916C67.1737 153.713 67.5614 154.834 67.5614 156.279V163.27H65.9242V161.566C64.9333 162.864 63.5977 163.513 61.9174 163.513ZM62.2405 162.141C63.2746 162.141 64.1506 161.854 64.8687 161.279C65.5868 160.703 65.9458 159.966 65.9458 159.066V158.004C64.8543 157.68 63.77 157.518 62.6929 157.518C61.6733 157.518 60.8762 157.732 60.3017 158.159C59.7273 158.572 59.4401 159.14 59.4401 159.863C59.4401 160.556 59.7057 161.109 60.2371 161.522C60.7829 161.935 61.4507 162.141 62.2405 162.141Z" fill="white"></path><path d="M75.7681 163.512C74.9472 163.512 74.1116 163.365 73.2614 163.07C72.4258 162.76 71.6928 162.347 71.0625 161.831L71.9201 160.614C73.2101 161.588 74.522 162.074 75.856 162.074C76.545 162.074 77.1094 161.905 77.5492 161.566C77.9889 161.226 78.2088 160.777 78.2088 160.216C78.2088 159.7 77.9669 159.302 77.4832 159.022C77.0141 158.741 76.3105 158.469 75.3723 158.203C74.8006 158.041 74.3461 157.893 74.009 157.761C73.6718 157.628 73.2907 157.444 72.8656 157.208C72.4405 156.957 72.1253 156.647 71.9201 156.278C71.7148 155.895 71.6122 155.445 71.6122 154.929C71.6122 153.956 71.9714 153.167 72.6897 152.562C73.4226 151.957 74.3535 151.655 75.4822 151.655C76.9481 151.655 78.3114 152.075 79.5721 152.916L78.8025 154.199C77.6738 153.461 76.5523 153.093 75.4383 153.093C74.7786 153.093 74.2435 153.255 73.8331 153.579C73.4373 153.889 73.2394 154.295 73.2394 154.796C73.2394 155.003 73.298 155.194 73.4153 155.371C73.5326 155.548 73.6645 155.696 73.8111 155.814C73.9577 155.932 74.1849 156.057 74.4927 156.19C74.8152 156.323 75.0718 156.419 75.2623 156.477C75.4529 156.536 75.7534 156.632 76.1639 156.765C76.7063 156.927 77.1534 157.082 77.5052 157.23C77.857 157.377 78.2308 157.576 78.6266 157.827C79.0224 158.078 79.3156 158.395 79.5062 158.778C79.7114 159.147 79.814 159.582 79.814 160.083C79.814 161.145 79.4329 161.986 78.6706 162.605C77.9083 163.21 76.9408 163.512 75.7681 163.512Z" fill="white"></path><path d="M150.991 163.512C149.338 163.512 147.943 162.934 146.806 161.778C145.684 160.607 145.123 159.209 145.123 157.584C145.123 155.959 145.684 154.568 146.806 153.412C147.943 152.24 149.338 151.655 150.991 151.655C152.763 151.655 154.29 152.328 155.575 153.675L154.49 154.817C153.427 153.704 152.253 153.148 150.969 153.148C149.817 153.148 148.843 153.58 148.046 154.444C147.264 155.293 146.872 156.339 146.872 157.584C146.872 158.813 147.271 159.86 148.068 160.724C148.88 161.573 149.884 161.997 151.08 161.997C152.305 161.997 153.456 161.426 154.534 160.285L155.663 161.317C154.335 162.78 152.777 163.512 150.991 163.512Z" fill="white"></path><path d="M92.6969 158.264C92.8119 159.421 93.2358 160.343 93.9686 161.031C94.7159 161.704 95.5996 162.041 96.6199 162.041C97.9563 162.041 99.1275 161.507 100.133 160.438L101.168 161.382C99.9178 162.802 98.3874 163.512 96.5768 163.512C95.0105 163.512 93.6884 162.963 92.6107 161.866C91.5473 160.753 91.0156 159.326 91.0156 157.584C91.0156 155.929 91.5258 154.531 92.546 153.39C93.5663 152.233 94.838 151.655 96.3612 151.655C97.9563 151.655 99.2209 152.226 100.155 153.368C101.089 154.509 101.556 155.944 101.556 157.671C101.556 157.891 101.549 158.089 101.534 158.264H92.6969ZM92.6969 156.903H99.8747C99.7741 155.805 99.4148 154.897 98.7969 154.18C98.1934 153.448 97.3671 153.082 96.3181 153.082C95.3697 153.082 94.5578 153.441 93.8824 154.158C93.207 154.875 92.8119 155.79 92.6969 156.903Z" fill="white"></path><path d="M133.453 158.264C133.568 159.421 133.992 160.343 134.725 161.031C135.472 161.704 136.355 162.041 137.376 162.041C138.712 162.041 139.883 161.507 140.889 160.438L141.924 161.382C140.674 162.802 139.143 163.512 137.333 163.512C135.766 163.512 134.444 162.963 133.367 161.866C132.303 160.753 131.771 159.326 131.771 157.584C131.771 155.929 132.282 154.531 133.302 153.39C134.322 152.233 135.594 151.655 137.117 151.655C138.712 151.655 139.977 152.226 140.911 153.368C141.845 154.509 142.312 155.944 142.312 157.671C142.312 157.891 142.305 158.089 142.29 158.264H133.453ZM133.453 156.903H140.631C140.53 155.805 140.171 154.897 139.553 154.18C138.949 153.448 138.123 153.082 137.074 153.082C136.126 153.082 135.314 153.441 134.638 154.158C133.963 154.875 133.568 155.79 133.453 156.903Z" fill="white"></path><path d="M169.994 158.264C170.109 159.421 170.533 160.343 171.266 161.031C172.013 161.704 172.897 162.041 173.917 162.041C175.253 162.041 176.424 161.507 177.43 160.438L178.465 161.382C177.215 162.802 175.684 163.512 173.874 163.512C172.307 163.512 170.985 162.963 169.908 161.866C168.844 160.753 168.312 159.326 168.312 157.584C168.312 155.929 168.823 154.531 169.843 153.39C170.863 152.233 172.135 151.655 173.658 151.655C175.253 151.655 176.518 152.226 177.452 153.368C178.386 154.509 178.853 155.944 178.853 157.671C178.853 157.891 178.846 158.089 178.831 158.264H169.994ZM169.994 156.903H177.172C177.071 155.805 176.712 154.897 176.094 154.18C175.49 153.448 174.664 153.082 173.615 153.082C172.667 153.082 171.855 153.441 171.179 154.158C170.504 154.875 170.109 155.79 169.994 156.903Z" fill="white"></path><path d="M104.367 163.512L108.681 157.48L104.537 151.655H106.407L109.659 156.242L112.91 151.655H114.738L110.572 157.435L114.908 163.512H113.016L109.616 158.673L106.195 163.512H104.367Z" fill="white"></path><path d="M117.719 167V151.9H119.377V154.22C120.497 152.51 121.919 151.655 123.642 151.655C125.063 151.655 126.305 152.205 127.368 153.305C128.43 154.391 128.962 155.848 128.962 157.677C128.962 159.476 128.43 160.926 127.368 162.026C126.305 163.126 125.063 163.677 123.642 163.677C121.89 163.677 120.468 162.859 119.377 161.223V167H117.719ZM123.34 162.138C124.46 162.138 125.394 161.736 126.14 160.933C126.887 160.115 127.26 159.023 127.26 157.655C127.26 156.331 126.88 155.261 126.119 154.443C125.358 153.61 124.432 153.194 123.34 153.194C122.263 153.194 121.323 153.618 120.519 154.465C119.715 155.313 119.313 156.383 119.313 157.677C119.313 158.971 119.715 160.041 120.519 160.889C121.323 161.721 122.263 162.138 123.34 162.138Z" fill="white"></path><path d="M163.367 163.775C162.364 163.775 161.563 163.519 160.965 163.006C160.381 162.478 160.089 161.664 160.089 160.565V153.704H158.473V152.209H160.089V148.779H161.818V152.209H165.5V153.704H161.818V160.345C161.818 161.606 162.469 162.236 163.771 162.236C164.34 162.236 164.901 162.104 165.455 161.84V163.291C164.826 163.614 164.13 163.775 163.367 163.775Z" fill="white"></path><path d="M186.982 163.775C185.561 163.775 184.319 163.248 183.256 162.195C182.193 161.127 181.662 159.705 181.662 157.93C181.662 156.183 182.193 154.776 183.256 153.708C184.319 152.64 185.561 152.106 186.982 152.106C188.734 152.106 190.155 152.9 191.247 154.488V147.733H192.905V163.537H191.247V161.286C190.127 162.945 188.705 163.775 186.982 163.775ZM187.284 162.281C188.361 162.281 189.301 161.87 190.105 161.047C190.909 160.225 191.311 159.178 191.311 157.908C191.311 156.667 190.909 155.642 190.105 154.834C189.301 154.011 188.361 153.6 187.284 153.6C186.164 153.6 185.23 153.997 184.484 154.791C183.737 155.57 183.364 156.624 183.364 157.951C183.364 159.236 183.744 160.282 184.505 161.091C185.266 161.885 186.192 162.281 187.284 162.281Z" fill="white"></path></svg>